<svg xmlns="http://www.w3.org/2000/svg" viewBox="0 0 900 560">
  <rect width="900" height="560" fill="#eeeeee"/>
  <rect x="70" y="52" width="560" height="350" rx="2" fill="#fff"/>
  <rect x="660" y="52" width="170" height="250" fill="#fff"/>
  <text x="92" y="102" font-family="Arial" font-size="34" font-weight="700" fill="#333">Shopping cart</text>
  <line x1="90" y1="150" x2="610" y2="150" stroke="#d6d6d6" stroke-width="2"/>
  <rect x="92" y="174" width="58" height="58" fill="#dac6c6"/>
  <rect x="92" y="252" width="58" height="58" fill="#6b4b59"/>
  <text x="178" y="208" font-family="Arial" font-size="18" fill="#35bda6">White Blouse Armani</text>
  <text x="178" y="286" font-family="Arial" font-size="18" fill="#35bda6">Black Blouse Armani</text>
  <rect x="402" y="184" width="48" height="34" rx="3" fill="#fff" stroke="#c9c9c9"/>
  <rect x="402" y="262" width="48" height="34" rx="3" fill="#fff" stroke="#c9c9c9"/>
  <text x="416" y="207" font-family="Arial" font-size="16" fill="#333">2</text>
  <text x="416" y="285" font-family="Arial" font-size="16" fill="#333">1</text>
  <text x="500" y="206" font-family="Arial" font-size="16" fill="#333">$246.00</text>
  <text x="500" y="284" font-family="Arial" font-size="16" fill="#333">$200.00</text>
  <line x1="90" y1="328" x2="610" y2="328" stroke="#d6d6d6" stroke-width="2"/>
  <text x="92" y="360" font-family="Arial" font-size="24" font-weight="700" fill="#333">Total</text>
  <text x="500" y="360" font-family="Arial" font-size="24" font-weight="700" fill="#333">$446.00</text>
  <rect x="512" y="424" width="118" height="42" rx="4" fill="#51bfa9"/>
  <text x="532" y="451" font-family="Arial" font-size="16" font-weight="700" fill="#fff">Checkout</text>
  <text x="680" y="102" font-family="Arial" font-size="24" font-weight="700" fill="#333">Order summary</text>
  <line x1="680" y1="150" x2="810" y2="150" stroke="#ddd" stroke-width="2"/>
  <text x="680" y="184" font-family="Arial" font-size="15" fill="#888">Subtotal</text>
  <text x="762" y="184" font-family="Arial" font-size="15" font-weight="700" fill="#333">$446</text>
  <text x="680" y="222" font-family="Arial" font-size="15" fill="#888">Shipping</text>
  <text x="762" y="222" font-family="Arial" font-size="15" font-weight="700" fill="#333">$10</text>
  <text x="680" y="268" font-family="Arial" font-size="22" font-weight="700" fill="#333">Total $456</text>
</svg>
